<svg width="1600" height="92" viewBox="0 0 1600 92" fill="none" xmlns="http://www.w3.org/2000/svg">
<rect width="1600" height="92" fill="#1C1E53"/>
<rect x="1256" y="17" width="183" height="58" rx="29" stroke="#F4F6FC" stroke-opacity="0.2" stroke-width="2"/>
<path d="M1303.59 46.416C1303.59 45.328 1303.84 44.352 1304.34 43.488C1304.86 42.624 1305.54 41.952 1306.41 41.472C1307.28 40.9813 1308.24 40.736 1309.27 40.736C1310.46 40.736 1311.51 41.0293 1312.42 41.616C1313.35 42.192 1314.02 43.0133 1314.44 44.08H1312.25C1311.96 43.4933 1311.56 43.056 1311.05 42.768C1310.54 42.48 1309.94 42.336 1309.27 42.336C1308.54 42.336 1307.88 42.5013 1307.3 42.832C1306.73 43.1627 1306.27 43.6373 1305.94 44.256C1305.62 44.8747 1305.46 45.5947 1305.46 46.416C1305.46 47.2373 1305.62 47.9573 1305.94 48.576C1306.27 49.1947 1306.73 49.6747 1307.3 50.016C1307.88 50.3467 1308.54 50.512 1309.27 50.512C1309.94 50.512 1310.54 50.368 1311.05 50.08C1311.56 49.792 1311.96 49.3547 1312.25 48.768H1314.44C1314.02 49.8347 1313.35 50.656 1312.42 51.232C1311.51 51.808 1310.46 52.096 1309.27 52.096C1308.23 52.096 1307.27 51.856 1306.41 51.376C1305.54 50.8853 1304.86 50.208 1304.34 49.344C1303.84 48.48 1303.59 47.504 1303.59 46.416ZM1320.4 52.144C1319.57 52.144 1318.82 51.9573 1318.14 51.584C1317.47 51.2 1316.94 50.6667 1316.56 49.984C1316.18 49.2907 1315.98 48.4907 1315.98 47.584C1315.98 46.688 1316.18 45.8933 1316.58 45.2C1316.97 44.5067 1317.51 43.9733 1318.19 43.6C1318.87 43.2267 1319.64 43.04 1320.48 43.04C1321.32 43.04 1322.08 43.2267 1322.77 43.6C1323.45 43.9733 1323.99 44.5067 1324.38 45.2C1324.78 45.8933 1324.98 46.688 1324.98 47.584C1324.98 48.48 1324.77 49.2747 1324.37 49.968C1323.96 50.6613 1323.41 51.2 1322.7 51.584C1322.01 51.9573 1321.24 52.144 1320.4 52.144ZM1320.4 50.56C1320.87 50.56 1321.31 50.448 1321.71 50.224C1322.13 50 1322.46 49.664 1322.72 49.216C1322.98 48.768 1323.1 48.224 1323.1 47.584C1323.1 46.944 1322.98 46.4053 1322.74 45.968C1322.49 45.52 1322.16 45.184 1321.76 44.96C1321.35 44.736 1320.92 44.624 1320.45 44.624C1319.98 44.624 1319.54 44.736 1319.14 44.96C1318.74 45.184 1318.43 45.52 1318.19 45.968C1317.96 46.4053 1317.84 46.944 1317.84 47.584C1317.84 48.5333 1318.08 49.2693 1318.56 49.792C1319.05 50.304 1319.66 50.56 1320.4 50.56ZM1331.23 43.04C1331.92 43.04 1332.54 43.184 1333.08 43.472C1333.64 43.76 1334.07 44.1867 1334.38 44.752C1334.69 45.3173 1334.84 46 1334.84 46.8V52H1333.03V47.072C1333.03 46.2827 1332.84 45.68 1332.44 45.264C1332.05 44.8373 1331.51 44.624 1330.83 44.624C1330.14 44.624 1329.6 44.8373 1329.19 45.264C1328.8 45.68 1328.6 46.2827 1328.6 47.072V52H1326.78V43.184H1328.6V44.192C1328.9 43.8293 1329.28 43.5467 1329.74 43.344C1330.21 43.1413 1330.7 43.04 1331.23 43.04ZM1339.3 44.672V49.552C1339.3 49.8827 1339.37 50.1227 1339.52 50.272C1339.68 50.4107 1339.95 50.48 1340.32 50.48H1341.44V52H1340C1339.18 52 1338.55 51.808 1338.11 51.424C1337.68 51.04 1337.46 50.416 1337.46 49.552V44.672H1336.42V43.184H1337.46V40.992H1339.3V43.184H1341.44V44.672H1339.3ZM1342.51 47.552C1342.51 46.6667 1342.7 45.8827 1343.06 45.2C1343.43 44.5173 1343.93 43.9893 1344.56 43.616C1345.2 43.232 1345.91 43.04 1346.67 43.04C1347.37 43.04 1347.97 43.1787 1348.48 43.456C1349 43.7227 1349.42 44.0587 1349.73 44.464V43.184H1351.57V52H1349.73V50.688C1349.42 51.104 1349 51.4507 1348.47 51.728C1347.93 52.0053 1347.32 52.144 1346.64 52.144C1345.88 52.144 1345.19 51.952 1344.56 51.568C1343.93 51.1733 1343.43 50.6293 1343.06 49.936C1342.7 49.232 1342.51 48.4373 1342.51 47.552ZM1349.73 47.584C1349.73 46.976 1349.6 46.448 1349.35 46C1349.1 45.552 1348.78 45.2107 1348.37 44.976C1347.96 44.7413 1347.53 44.624 1347.06 44.624C1346.59 44.624 1346.15 44.7413 1345.75 44.976C1345.34 45.2 1345.01 45.536 1344.75 45.984C1344.51 46.4213 1344.39 46.944 1344.39 47.552C1344.39 48.16 1344.51 48.6933 1344.75 49.152C1345.01 49.6107 1345.34 49.9627 1345.75 50.208C1346.16 50.4427 1346.6 50.56 1347.06 50.56C1347.53 50.56 1347.96 50.4427 1348.37 50.208C1348.78 49.9733 1349.1 49.632 1349.35 49.184C1349.6 48.7253 1349.73 48.192 1349.73 47.584ZM1353.36 47.584C1353.36 46.6773 1353.54 45.8827 1353.9 45.2C1354.27 44.5067 1354.79 43.9733 1355.44 43.6C1356.09 43.2267 1356.83 43.04 1357.68 43.04C1358.74 43.04 1359.62 43.296 1360.32 43.808C1361.02 44.3093 1361.5 45.0293 1361.74 45.968H1359.77C1359.61 45.5307 1359.36 45.1893 1359.01 44.944C1358.65 44.6987 1358.21 44.576 1357.68 44.576C1356.93 44.576 1356.33 44.8427 1355.89 45.376C1355.45 45.8987 1355.23 46.6347 1355.23 47.584C1355.23 48.5333 1355.45 49.2747 1355.89 49.808C1356.33 50.3413 1356.93 50.608 1357.68 50.608C1358.73 50.608 1359.43 50.144 1359.77 49.216H1361.74C1361.49 50.112 1361.01 50.8267 1360.3 51.36C1359.6 51.8827 1358.72 52.144 1357.68 52.144C1356.83 52.144 1356.09 51.9573 1355.44 51.584C1354.79 51.2 1354.27 50.6667 1353.9 49.984C1353.54 49.2907 1353.36 48.4907 1353.36 47.584ZM1365.69 44.672V49.552C1365.69 49.8827 1365.76 50.1227 1365.91 50.272C1366.07 50.4107 1366.34 50.48 1366.71 50.48H1367.83V52H1366.39C1365.57 52 1364.94 51.808 1364.5 51.424C1364.07 51.04 1363.85 50.416 1363.85 49.552V44.672H1362.81V43.184H1363.85V40.992H1365.69V43.184H1367.83V44.672H1365.69ZM1381.65 43.184V52H1379.83V50.96C1379.54 51.3227 1379.16 51.6107 1378.69 51.824C1378.23 52.0267 1377.74 52.128 1377.22 52.128C1376.53 52.128 1375.9 51.984 1375.35 51.696C1374.8 51.408 1374.37 50.9813 1374.05 50.416C1373.74 49.8507 1373.59 49.168 1373.59 48.368V43.184H1375.4V48.096C1375.4 48.8853 1375.59 49.4933 1375.99 49.92C1376.38 50.336 1376.92 50.544 1377.6 50.544C1378.29 50.544 1378.83 50.336 1379.22 49.92C1379.63 49.4933 1379.83 48.8853 1379.83 48.096V43.184H1381.65ZM1387.26 52.144C1386.57 52.144 1385.94 52.0213 1385.39 51.776C1384.84 51.52 1384.41 51.1787 1384.09 50.752C1383.77 50.3147 1383.6 49.8293 1383.58 49.296H1385.47C1385.5 49.6693 1385.68 49.984 1386 50.24C1386.33 50.4853 1386.74 50.608 1387.23 50.608C1387.74 50.608 1388.13 50.512 1388.41 50.32C1388.7 50.1173 1388.84 49.8613 1388.84 49.552C1388.84 49.2213 1388.68 48.976 1388.36 48.816C1388.05 48.656 1387.56 48.48 1386.88 48.288C1386.21 48.1067 1385.68 47.9307 1385.26 47.76C1384.84 47.5893 1384.48 47.328 1384.17 46.976C1383.87 46.624 1383.72 46.16 1383.72 45.584C1383.72 45.1147 1383.86 44.688 1384.14 44.304C1384.42 43.9093 1384.81 43.6 1385.32 43.376C1385.85 43.152 1386.44 43.04 1387.12 43.04C1388.12 43.04 1388.92 43.296 1389.53 43.808C1390.15 44.3093 1390.48 44.9973 1390.52 45.872H1388.7C1388.67 45.4773 1388.51 45.1627 1388.22 44.928C1387.93 44.6933 1387.54 44.576 1387.05 44.576C1386.57 44.576 1386.2 44.6667 1385.95 44.848C1385.69 45.0293 1385.56 45.2693 1385.56 45.568C1385.56 45.8027 1385.65 46 1385.82 46.16C1385.99 46.32 1386.2 46.448 1386.44 46.544C1386.69 46.6293 1387.05 46.7413 1387.53 46.88C1388.17 47.0507 1388.69 47.2267 1389.1 47.408C1389.52 47.5787 1389.87 47.8347 1390.17 48.176C1390.47 48.5173 1390.62 48.9707 1390.64 49.536C1390.64 50.0373 1390.5 50.4853 1390.22 50.88C1389.94 51.2747 1389.55 51.584 1389.04 51.808C1388.53 52.032 1387.94 52.144 1387.26 52.144Z" fill="white"/>
<path d="M812.08 40.88V52H810.256V47.136H805.024V52H803.2V40.88H805.024V45.648H810.256V40.88H812.08ZM818.305 52.144C817.473 52.144 816.721 51.9573 816.049 51.584C815.377 51.2 814.849 50.6667 814.465 49.984C814.081 49.2907 813.889 48.4907 813.889 47.584C813.889 46.688 814.087 45.8933 814.481 45.2C814.876 44.5067 815.415 43.9733 816.097 43.6C816.78 43.2267 817.543 43.04 818.385 43.04C819.228 43.04 819.991 43.2267 820.673 43.6C821.356 43.9733 821.895 44.5067 822.289 45.2C822.684 45.8933 822.881 46.688 822.881 47.584C822.881 48.48 822.679 49.2747 822.273 49.968C821.868 50.6613 821.313 51.2 820.609 51.584C819.916 51.9573 819.148 52.144 818.305 52.144ZM818.305 50.56C818.775 50.56 819.212 50.448 819.617 50.224C820.033 50 820.369 49.664 820.625 49.216C820.881 48.768 821.009 48.224 821.009 47.584C821.009 46.944 820.887 46.4053 820.641 45.968C820.396 45.52 820.071 45.184 819.665 44.96C819.26 44.736 818.823 44.624 818.353 44.624C817.884 44.624 817.447 44.736 817.041 44.96C816.647 45.184 816.332 45.52 816.097 45.968C815.863 46.4053 815.745 46.944 815.745 47.584C815.745 48.5333 815.985 49.2693 816.465 49.792C816.956 50.304 817.569 50.56 818.305 50.56ZM835.356 43.04C836.05 43.04 836.668 43.184 837.212 43.472C837.767 43.76 838.199 44.1867 838.508 44.752C838.828 45.3173 838.988 46 838.988 46.8V52H837.18V47.072C837.18 46.2827 836.983 45.68 836.588 45.264C836.194 44.8373 835.655 44.624 834.972 44.624C834.29 44.624 833.746 44.8373 833.34 45.264C832.946 45.68 832.748 46.2827 832.748 47.072V52H830.94V47.072C830.94 46.2827 830.743 45.68 830.348 45.264C829.954 44.8373 829.415 44.624 828.732 44.624C828.05 44.624 827.506 44.8373 827.1 45.264C826.706 45.68 826.508 46.2827 826.508 47.072V52H824.684V43.184H826.508V44.192C826.807 43.8293 827.186 43.5467 827.644 43.344C828.103 43.1413 828.594 43.04 829.116 43.04C829.82 43.04 830.45 43.1893 831.004 43.488C831.559 43.7867 831.986 44.2187 832.284 44.784C832.551 44.2507 832.967 43.8293 833.532 43.52C834.098 43.2 834.706 43.04 835.356 43.04ZM849.389 47.376C849.389 47.7067 849.368 48.0053 849.325 48.272H842.589C842.643 48.976 842.904 49.5413 843.373 49.968C843.843 50.3947 844.419 50.608 845.101 50.608C846.083 50.608 846.776 50.1973 847.181 49.376H849.149C848.883 50.1867 848.397 50.8533 847.693 51.376C847 51.888 846.136 52.144 845.101 52.144C844.259 52.144 843.501 51.9573 842.829 51.584C842.168 51.2 841.645 50.6667 841.261 49.984C840.888 49.2907 840.701 48.4907 840.701 47.584C840.701 46.6773 840.883 45.8827 841.245 45.2C841.619 44.5067 842.136 43.9733 842.797 43.6C843.469 43.2267 844.237 43.04 845.101 43.04C845.933 43.04 846.675 43.2213 847.325 43.584C847.976 43.9467 848.483 44.4587 848.845 45.12C849.208 45.7707 849.389 46.5227 849.389 47.376ZM847.485 46.8C847.475 46.128 847.235 45.5893 846.765 45.184C846.296 44.7787 845.715 44.576 845.021 44.576C844.392 44.576 843.853 44.7787 843.405 45.184C842.957 45.5787 842.691 46.1173 842.605 46.8H847.485Z" fill="white"/>
<path d="M897.904 49.728H893.248L892.448 52H890.544L894.528 40.864H896.64L900.624 52H898.704L897.904 49.728ZM897.392 48.24L895.584 43.072L893.76 48.24H897.392ZM904.18 44.496C904.49 44.0693 904.911 43.7227 905.444 43.456C905.988 43.1787 906.591 43.04 907.252 43.04C908.031 43.04 908.735 43.2267 909.364 43.6C909.994 43.9733 910.49 44.5067 910.852 45.2C911.215 45.8827 911.396 46.6667 911.396 47.552C911.396 48.4373 911.215 49.232 910.852 49.936C910.49 50.6293 909.988 51.1733 909.348 51.568C908.719 51.952 908.02 52.144 907.252 52.144C906.57 52.144 905.962 52.0107 905.428 51.744C904.906 51.4773 904.49 51.136 904.18 50.72V52H902.356V40.16H904.18V44.496ZM909.54 47.552C909.54 46.944 909.412 46.4213 909.156 45.984C908.911 45.536 908.58 45.2 908.164 44.976C907.759 44.7413 907.322 44.624 906.852 44.624C906.394 44.624 905.956 44.7413 905.54 44.976C905.135 45.2107 904.804 45.552 904.548 46C904.303 46.448 904.18 46.976 904.18 47.584C904.18 48.192 904.303 48.7253 904.548 49.184C904.804 49.632 905.135 49.9733 905.54 50.208C905.956 50.4427 906.394 50.56 906.852 50.56C907.322 50.56 907.759 50.4427 908.164 50.208C908.58 49.9627 908.911 49.6107 909.156 49.152C909.412 48.6933 909.54 48.16 909.54 47.552ZM917.024 52.144C916.192 52.144 915.44 51.9573 914.768 51.584C914.096 51.2 913.568 50.6667 913.184 49.984C912.8 49.2907 912.608 48.4907 912.608 47.584C912.608 46.688 912.805 45.8933 913.2 45.2C913.595 44.5067 914.133 43.9733 914.816 43.6C915.499 43.2267 916.261 43.04 917.104 43.04C917.947 43.04 918.709 43.2267 919.392 43.6C920.075 43.9733 920.613 44.5067 921.008 45.2C921.403 45.8933 921.6 46.688 921.6 47.584C921.6 48.48 921.397 49.2747 920.992 49.968C920.587 50.6613 920.032 51.2 919.328 51.584C918.635 51.9573 917.867 52.144 917.024 52.144ZM917.024 50.56C917.493 50.56 917.931 50.448 918.336 50.224C918.752 50 919.088 49.664 919.344 49.216C919.6 48.768 919.728 48.224 919.728 47.584C919.728 46.944 919.605 46.4053 919.36 45.968C919.115 45.52 918.789 45.184 918.384 44.96C917.979 44.736 917.541 44.624 917.072 44.624C916.603 44.624 916.165 44.736 915.76 44.96C915.365 45.184 915.051 45.52 914.816 45.968C914.581 46.4053 914.464 46.944 914.464 47.584C914.464 48.5333 914.704 49.2693 915.184 49.792C915.675 50.304 916.288 50.56 917.024 50.56ZM931.387 43.184V52H929.563V50.96C929.275 51.3227 928.896 51.6107 928.427 51.824C927.968 52.0267 927.478 52.128 926.955 52.128C926.262 52.128 925.638 51.984 925.083 51.696C924.539 51.408 924.107 50.9813 923.787 50.416C923.478 49.8507 923.323 49.168 923.323 48.368V43.184H925.131V48.096C925.131 48.8853 925.328 49.4933 925.723 49.92C926.118 50.336 926.656 50.544 927.339 50.544C928.022 50.544 928.56 50.336 928.955 49.92C929.36 49.4933 929.563 48.8853 929.563 48.096V43.184H931.387ZM935.922 44.672V49.552C935.922 49.8827 935.996 50.1227 936.146 50.272C936.306 50.4107 936.572 50.48 936.946 50.48H938.066V52H936.626C935.804 52 935.175 51.808 934.738 51.424C934.3 51.04 934.082 50.416 934.082 49.552V44.672H933.042V43.184H934.082V40.992H935.922V43.184H938.066V44.672H935.922ZM951.887 43.184V52H950.063V50.96C949.775 51.3227 949.396 51.6107 948.927 51.824C948.468 52.0267 947.978 52.128 947.455 52.128C946.762 52.128 946.138 51.984 945.583 51.696C945.039 51.408 944.607 50.9813 944.287 50.416C943.978 49.8507 943.823 49.168 943.823 48.368V43.184H945.631V48.096C945.631 48.8853 945.828 49.4933 946.223 49.92C946.618 50.336 947.156 50.544 947.839 50.544C948.522 50.544 949.06 50.336 949.455 49.92C949.86 49.4933 950.063 48.8853 950.063 48.096V43.184H951.887ZM957.494 52.144C956.8 52.144 956.176 52.0213 955.622 51.776C955.078 51.52 954.646 51.1787 954.326 50.752C954.006 50.3147 953.835 49.8293 953.814 49.296H955.702C955.734 49.6693 955.91 49.984 956.23 50.24C956.56 50.4853 956.971 50.608 957.462 50.608C957.974 50.608 958.368 50.512 958.646 50.32C958.934 50.1173 959.078 49.8613 959.078 49.552C959.078 49.2213 958.918 48.976 958.598 48.816C958.288 48.656 957.792 48.48 957.11 48.288C956.448 48.1067 955.91 47.9307 955.494 47.76C955.078 47.5893 954.715 47.328 954.406 46.976C954.107 46.624 953.958 46.16 953.958 45.584C953.958 45.1147 954.096 44.688 954.374 44.304C954.651 43.9093 955.046 43.6 955.558 43.376C956.08 43.152 956.678 43.04 957.35 43.04C958.352 43.04 959.158 43.296 959.766 43.808C960.384 44.3093 960.715 44.9973 960.758 45.872H958.934C958.902 45.4773 958.742 45.1627 958.454 44.928C958.166 44.6933 957.776 44.576 957.286 44.576C956.806 44.576 956.438 44.6667 956.182 44.848C955.926 45.0293 955.798 45.2693 955.798 45.568C955.798 45.8027 955.883 46 956.054 46.16C956.224 46.32 956.432 46.448 956.678 46.544C956.923 46.6293 957.286 46.7413 957.766 46.88C958.406 47.0507 958.928 47.2267 959.334 47.408C959.75 47.5787 960.107 47.8347 960.406 48.176C960.704 48.5173 960.859 48.9707 960.87 49.536C960.87 50.0373 960.731 50.4853 960.454 50.88C960.176 51.2747 959.782 51.584 959.27 51.808C958.768 52.032 958.176 52.144 957.494 52.144Z" fill="#BBBBCB"/>
<path d="M1010.98 44.192C1010.98 44.7573 1010.84 45.2907 1010.58 45.792C1010.31 46.2933 1009.88 46.704 1009.3 47.024C1008.71 47.3333 1007.96 47.488 1007.04 47.488H1005.02V52H1003.2V40.88H1007.04C1007.89 40.88 1008.61 41.0293 1009.2 41.328C1009.8 41.616 1010.24 42.0107 1010.53 42.512C1010.83 43.0133 1010.98 43.5733 1010.98 44.192ZM1007.04 46C1007.73 46 1008.25 45.8453 1008.59 45.536C1008.93 45.216 1009.1 44.768 1009.1 44.192C1009.1 42.976 1008.42 42.368 1007.04 42.368H1005.02V46H1007.04ZM1014.54 44.464C1014.81 44.016 1015.16 43.6693 1015.6 43.424C1016.04 43.168 1016.57 43.04 1017.18 43.04V44.928H1016.72C1016 44.928 1015.46 45.1093 1015.08 45.472C1014.72 45.8347 1014.54 46.464 1014.54 47.36V52H1012.72V43.184H1014.54V44.464ZM1019.78 42.016C1019.45 42.016 1019.18 41.904 1018.95 41.68C1018.73 41.456 1018.62 41.1787 1018.62 40.848C1018.62 40.5173 1018.73 40.24 1018.95 40.016C1019.18 39.792 1019.45 39.68 1019.78 39.68C1020.1 39.68 1020.38 39.792 1020.6 40.016C1020.82 40.24 1020.94 40.5173 1020.94 40.848C1020.94 41.1787 1020.82 41.456 1020.6 41.68C1020.38 41.904 1020.1 42.016 1019.78 42.016ZM1020.68 43.184V52H1018.86V43.184H1020.68ZM1022.47 47.584C1022.47 46.6773 1022.65 45.8827 1023.01 45.2C1023.38 44.5067 1023.9 43.9733 1024.55 43.6C1025.2 43.2267 1025.94 43.04 1026.79 43.04C1027.85 43.04 1028.73 43.296 1029.43 43.808C1030.13 44.3093 1030.61 45.0293 1030.85 45.968H1028.88C1028.72 45.5307 1028.47 45.1893 1028.12 44.944C1027.76 44.6987 1027.32 44.576 1026.79 44.576C1026.04 44.576 1025.44 44.8427 1025 45.376C1024.56 45.8987 1024.34 46.6347 1024.34 47.584C1024.34 48.5333 1024.56 49.2747 1025 49.808C1025.44 50.3413 1026.04 50.608 1026.79 50.608C1027.84 50.608 1028.54 50.144 1028.88 49.216H1030.85C1030.6 50.112 1030.12 50.8267 1029.41 51.36C1028.71 51.8827 1027.83 52.144 1026.79 52.144C1025.94 52.144 1025.2 51.9573 1024.55 51.584C1023.9 51.2 1023.38 50.6667 1023.01 49.984C1022.65 49.2907 1022.47 48.4907 1022.47 47.584ZM1033.6 42.016C1033.27 42.016 1032.99 41.904 1032.76 41.68C1032.54 41.456 1032.43 41.1787 1032.43 40.848C1032.43 40.5173 1032.54 40.24 1032.76 40.016C1032.99 39.792 1033.27 39.68 1033.6 39.68C1033.92 39.68 1034.19 39.792 1034.41 40.016C1034.64 40.24 1034.75 40.5173 1034.75 40.848C1034.75 41.1787 1034.64 41.456 1034.41 41.68C1034.19 41.904 1033.92 42.016 1033.6 42.016ZM1034.49 43.184V52H1032.67V43.184H1034.49ZM1041.34 43.04C1042.03 43.04 1042.65 43.184 1043.19 43.472C1043.75 43.76 1044.18 44.1867 1044.49 44.752C1044.8 45.3173 1044.95 46 1044.95 46.8V52H1043.14V47.072C1043.14 46.2827 1042.95 45.68 1042.55 45.264C1042.16 44.8373 1041.62 44.624 1040.94 44.624C1040.25 44.624 1039.71 44.8373 1039.3 45.264C1038.91 45.68 1038.71 46.2827 1038.71 47.072V52H1036.89V43.184H1038.71V44.192C1039.01 43.8293 1039.39 43.5467 1039.85 43.344C1040.32 43.1413 1040.81 43.04 1041.34 43.04ZM1050.83 43.04C1051.51 43.04 1052.12 43.1787 1052.64 43.456C1053.17 43.7227 1053.59 44.0587 1053.89 44.464V43.184H1055.73V52.144C1055.73 52.9547 1055.56 53.6747 1055.21 54.304C1054.87 54.944 1054.38 55.4453 1053.73 55.808C1053.09 56.1707 1052.32 56.352 1051.42 56.352C1050.23 56.352 1049.24 56.0693 1048.45 55.504C1047.66 54.9493 1047.21 54.192 1047.1 53.232H1048.91C1049.05 53.6907 1049.34 54.0587 1049.79 54.336C1050.25 54.624 1050.79 54.768 1051.42 54.768C1052.16 54.768 1052.75 54.544 1053.2 54.096C1053.66 53.648 1053.89 52.9973 1053.89 52.144V50.672C1053.58 51.088 1053.16 51.44 1052.62 51.728C1052.1 52.0053 1051.5 52.144 1050.83 52.144C1050.06 52.144 1049.36 51.952 1048.72 51.568C1048.09 51.1733 1047.59 50.6293 1047.21 49.936C1046.85 49.232 1046.67 48.4373 1046.67 47.552C1046.67 46.6667 1046.85 45.8827 1047.21 45.2C1047.59 44.5173 1048.09 43.9893 1048.72 43.616C1049.36 43.232 1050.06 43.04 1050.83 43.04ZM1053.89 47.584C1053.89 46.976 1053.76 46.448 1053.5 46C1053.26 45.552 1052.93 45.2107 1052.53 44.976C1052.12 44.7413 1051.68 44.624 1051.21 44.624C1050.74 44.624 1050.31 44.7413 1049.9 44.976C1049.5 45.2 1049.17 45.536 1048.91 45.984C1048.66 46.4213 1048.54 46.944 1048.54 47.552C1048.54 48.16 1048.66 48.6933 1048.91 49.152C1049.17 49.6107 1049.5 49.9627 1049.9 50.208C1050.32 50.4427 1050.76 50.56 1051.21 50.56C1051.68 50.56 1052.12 50.4427 1052.53 50.208C1052.93 49.9733 1053.26 49.632 1053.5 49.184C1053.76 48.7253 1053.89 48.192 1053.89 47.584Z" fill="#BBBBCB"/>
<path d="M1112.68 40.88L1109.38 52H1107.32L1104.98 43.584L1102.5 52L1100.46 52.016L1097.3 40.88H1099.24L1101.54 49.936L1104.04 40.88H1106.09L1108.41 49.888L1110.73 40.88H1112.68ZM1118.01 52.144C1117.18 52.144 1116.42 51.9573 1115.75 51.584C1115.08 51.2 1114.55 50.6667 1114.17 49.984C1113.78 49.2907 1113.59 48.4907 1113.59 47.584C1113.59 46.688 1113.79 45.8933 1114.18 45.2C1114.58 44.5067 1115.12 43.9733 1115.8 43.6C1116.48 43.2267 1117.25 43.04 1118.09 43.04C1118.93 43.04 1119.69 43.2267 1120.38 43.6C1121.06 43.9733 1121.6 44.5067 1121.99 45.2C1122.39 45.8933 1122.58 46.688 1122.58 47.584C1122.58 48.48 1122.38 49.2747 1121.98 49.968C1121.57 50.6613 1121.02 51.2 1120.31 51.584C1119.62 51.9573 1118.85 52.144 1118.01 52.144ZM1118.01 50.56C1118.48 50.56 1118.92 50.448 1119.32 50.224C1119.74 50 1120.07 49.664 1120.33 49.216C1120.58 48.768 1120.71 48.224 1120.71 47.584C1120.71 46.944 1120.59 46.4053 1120.34 45.968C1120.1 45.52 1119.77 45.184 1119.37 44.96C1118.96 44.736 1118.53 44.624 1118.06 44.624C1117.59 44.624 1117.15 44.736 1116.74 44.96C1116.35 45.184 1116.04 45.52 1115.8 45.968C1115.57 46.4053 1115.45 46.944 1115.45 47.584C1115.45 48.5333 1115.69 49.2693 1116.17 49.792C1116.66 50.304 1117.27 50.56 1118.01 50.56ZM1126.21 44.464C1126.48 44.016 1126.83 43.6693 1127.27 43.424C1127.72 43.168 1128.24 43.04 1128.85 43.04V44.928H1128.39C1127.67 44.928 1127.13 45.1093 1126.76 45.472C1126.39 45.8347 1126.21 46.464 1126.21 47.36V52H1124.39V43.184H1126.21V44.464ZM1134.02 47.6L1138.08 52H1135.62L1132.35 48.208V52H1130.53V40.16H1132.35V47.04L1135.55 43.184H1138.08L1134.02 47.6Z" fill="#BBBBCB"/>
<path d="M1186.15 46.288C1186.75 46.3947 1187.26 46.7093 1187.67 47.232C1188.09 47.7547 1188.3 48.3467 1188.3 49.008C1188.3 49.5733 1188.15 50.0853 1187.85 50.544C1187.56 50.992 1187.14 51.3493 1186.58 51.616C1186.03 51.872 1185.38 52 1184.65 52H1180.2V40.88H1184.44C1185.2 40.88 1185.85 41.008 1186.39 41.264C1186.94 41.52 1187.35 41.8667 1187.62 42.304C1187.9 42.7307 1188.04 43.2107 1188.04 43.744C1188.04 44.384 1187.87 44.9173 1187.53 45.344C1187.19 45.7707 1186.73 46.0853 1186.15 46.288ZM1182.02 45.552H1184.28C1184.88 45.552 1185.34 45.4187 1185.67 45.152C1186.01 44.8747 1186.18 44.48 1186.18 43.968C1186.18 43.4667 1186.01 43.0773 1185.67 42.8C1185.34 42.512 1184.88 42.368 1184.28 42.368H1182.02V45.552ZM1184.49 50.512C1185.11 50.512 1185.59 50.3627 1185.94 50.064C1186.3 49.7653 1186.47 49.3493 1186.47 48.816C1186.47 48.272 1186.29 47.84 1185.91 47.52C1185.54 47.2 1185.04 47.04 1184.42 47.04H1182.02V50.512H1184.49ZM1192.1 40.16V52H1190.28V40.16H1192.1ZM1198.32 52.144C1197.49 52.144 1196.74 51.9573 1196.06 51.584C1195.39 51.2 1194.86 50.6667 1194.48 49.984C1194.1 49.2907 1193.9 48.4907 1193.9 47.584C1193.9 46.688 1194.1 45.8933 1194.5 45.2C1194.89 44.5067 1195.43 43.9733 1196.11 43.6C1196.8 43.2267 1197.56 43.04 1198.4 43.04C1199.24 43.04 1200.01 43.2267 1200.69 43.6C1201.37 43.9733 1201.91 44.5067 1202.3 45.2C1202.7 45.8933 1202.9 46.688 1202.9 47.584C1202.9 48.48 1202.69 49.2747 1202.29 49.968C1201.88 50.6613 1201.33 51.2 1200.62 51.584C1199.93 51.9573 1199.16 52.144 1198.32 52.144ZM1198.32 50.56C1198.79 50.56 1199.23 50.448 1199.63 50.224C1200.05 50 1200.38 49.664 1200.64 49.216C1200.9 48.768 1201.02 48.224 1201.02 47.584C1201.02 46.944 1200.9 46.4053 1200.66 45.968C1200.41 45.52 1200.09 45.184 1199.68 44.96C1199.28 44.736 1198.84 44.624 1198.37 44.624C1197.9 44.624 1197.46 44.736 1197.06 44.96C1196.66 45.184 1196.35 45.52 1196.11 45.968C1195.88 46.4053 1195.76 46.944 1195.76 47.584C1195.76 48.5333 1196 49.2693 1196.48 49.792C1196.97 50.304 1197.58 50.56 1198.32 50.56ZM1208.25 43.04C1208.93 43.04 1209.54 43.1787 1210.06 43.456C1210.59 43.7227 1211.01 44.0587 1211.31 44.464V43.184H1213.15V52.144C1213.15 52.9547 1212.98 53.6747 1212.64 54.304C1212.29 54.944 1211.8 55.4453 1211.15 55.808C1210.51 56.1707 1209.74 56.352 1208.84 56.352C1207.65 56.352 1206.66 56.0693 1205.87 55.504C1205.08 54.9493 1204.63 54.192 1204.52 53.232H1206.33C1206.47 53.6907 1206.76 54.0587 1207.21 54.336C1207.67 54.624 1208.21 54.768 1208.84 54.768C1209.58 54.768 1210.17 54.544 1210.62 54.096C1211.08 53.648 1211.31 52.9973 1211.31 52.144V50.672C1211 51.088 1210.58 51.44 1210.04 51.728C1209.52 52.0053 1208.92 52.144 1208.25 52.144C1207.48 52.144 1206.78 51.952 1206.14 51.568C1205.51 51.1733 1205.01 50.6293 1204.64 49.936C1204.27 49.232 1204.09 48.4373 1204.09 47.552C1204.09 46.6667 1204.27 45.8827 1204.64 45.2C1205.01 44.5173 1205.51 43.9893 1206.14 43.616C1206.78 43.232 1207.48 43.04 1208.25 43.04ZM1211.31 47.584C1211.31 46.976 1211.18 46.448 1210.92 46C1210.68 45.552 1210.35 45.2107 1209.95 44.976C1209.54 44.7413 1209.11 44.624 1208.64 44.624C1208.17 44.624 1207.73 44.7413 1207.32 44.976C1206.92 45.2 1206.59 45.536 1206.33 45.984C1206.09 46.4213 1205.96 46.944 1205.96 47.552C1205.96 48.16 1206.09 48.6933 1206.33 49.152C1206.59 49.6107 1206.92 49.9627 1207.32 50.208C1207.74 50.4427 1208.18 50.56 1208.64 50.56C1209.11 50.56 1209.54 50.4427 1209.95 50.208C1210.35 49.9733 1210.68 49.632 1210.92 49.184C1211.18 48.7253 1211.31 48.192 1211.31 47.584Z" fill="#BBBBCB"/>
<g clip-path="url(#clip0_904_956)">
<path d="M281.784 51.8719V54.891H279.252C276.549 54.806 275.105 53.3467 275.105 50.6055V43.7102H273.337V41.0617H275.105V38.0967H278.842V41.0309H281.699V43.6716H278.842V50.2349C278.842 51.1229 279.02 51.8333 280.387 51.8333L281.784 51.8719Z" fill="white"/>
<path d="M258.442 48.0033V47.8026C258.401 46.9145 258.536 46.0272 258.84 45.1914C259.143 44.3557 259.608 43.5881 260.208 42.9324C260.809 42.2768 261.532 41.7461 262.338 41.3708C263.144 40.9954 264.016 40.7828 264.904 40.7451C265.082 40.7451 265.267 40.7451 265.445 40.7451C268.974 40.7451 272.07 42.799 272.07 47.6945V48.7369H262.264C262.364 50.9916 263.584 52.2656 265.638 52.2656C267.406 52.2656 268.232 51.4935 268.472 50.3661H272.001C271.568 53.308 269.221 54.945 265.507 54.945C261.43 54.9141 258.442 52.3351 258.442 48.0033ZM268.395 46.3741C268.263 44.3202 267.229 43.3318 265.43 43.3318C263.63 43.3318 262.596 44.4437 262.341 46.3741H268.395Z" fill="white"/>
<path d="M243.184 48.0033V47.8026C243.143 46.9157 243.278 46.0296 243.58 45.1949C243.882 44.3601 244.346 43.5931 244.945 42.9377C245.544 42.2823 246.266 41.7513 247.07 41.375C247.874 40.9988 248.744 40.7848 249.631 40.7451C249.809 40.7451 249.994 40.7451 250.172 40.7451C253.7 40.7451 256.805 42.799 256.805 47.6945V48.7369H247.006C247.106 50.9916 248.326 52.2656 250.38 52.2656C252.148 52.2656 252.975 51.4935 253.214 50.3661H256.743C256.303 53.308 253.955 54.945 250.241 54.945C246.172 54.9141 243.184 52.3351 243.184 48.0033ZM253.137 46.3741C253.006 44.3202 251.971 43.3318 250.172 43.3318C248.373 43.3318 247.369 44.4746 247.083 46.3664L253.137 46.3741Z" fill="white"/>
<path d="M221.772 41.0303H225.726L228.143 50.188L230.791 41.0303H233.88L236.273 50.188L238.822 41.0303H242.443L238.15 54.6356H234.443L232.127 46.0956L229.648 54.6356H225.896L221.772 41.0303Z" fill="white"/>
<path d="M209.209 50.358H212.738C212.9 51.5858 213.51 52.2884 215.131 52.2884C216.583 52.2884 217.255 51.7402 217.255 50.8059C217.255 49.8716 216.483 49.4778 214.506 49.1998C210.885 48.6516 209.487 47.6092 209.487 44.953C209.487 42.1192 212.081 40.7139 214.892 40.7139C217.911 40.7139 220.189 41.8103 220.513 44.9375H217.031C217.009 44.6958 216.939 44.4608 216.825 44.2462C216.712 44.0317 216.557 43.8417 216.369 43.6873C216.182 43.533 215.966 43.4173 215.733 43.3469C215.501 43.2766 215.257 43.2529 215.016 43.2774H214.9C213.68 43.2774 212.969 43.8488 212.969 44.6827C212.969 45.5167 213.626 45.8796 215.618 46.1653C219 46.6749 220.892 47.532 220.892 50.443C220.892 53.354 218.753 54.9137 215.17 54.9137C211.587 54.9137 209.309 53.2999 209.209 50.358Z" fill="white"/>
<path d="M194.214 41.03H197.951V43.1843C198.372 42.3936 199.012 41.7404 199.793 41.3024C200.575 40.8644 201.466 40.66 202.36 40.7134C205.009 40.7134 206.931 42.3272 206.931 46.0104V54.6662H203.24V46.5509C203.24 44.7054 202.522 43.8252 200.854 43.8252C200.502 43.7945 200.147 43.8337 199.809 43.9406C199.472 44.0476 199.159 44.22 198.889 44.4482C198.618 44.6763 198.396 44.9556 198.233 45.2701C198.071 45.5846 197.973 45.928 197.943 46.2806C197.924 46.4448 197.924 46.6107 197.943 46.7748V54.6353H194.214V41.03Z" fill="white"/>
<path d="M187.002 37.6097C186.989 37.2371 187.086 36.8688 187.282 36.5516C187.478 36.2343 187.763 35.9823 188.103 35.8274C188.442 35.6726 188.819 35.6218 189.187 35.6816C189.555 35.7414 189.897 35.9091 190.17 36.1634C190.443 36.4177 190.634 36.7472 190.719 37.1101C190.804 37.4731 190.78 37.8532 190.649 38.2024C190.518 38.5515 190.287 38.854 189.984 39.0715C189.681 39.289 189.321 39.4118 188.948 39.4243H188.879C188.647 39.4389 188.415 39.4077 188.196 39.3326C187.977 39.2574 187.775 39.1396 187.601 38.9861C187.427 38.8326 187.286 38.6463 187.184 38.4379C187.083 38.2296 187.024 38.0032 187.01 37.7719C187.004 37.7181 187.001 37.6639 187.002 37.6097ZM187.002 41.0304H190.778V54.6357H187.018L187.002 41.0304Z" fill="white"/>
<path d="M172.771 36.042H184.709V39.3391H176.987V44.2577H183.103V47.4312H176.98V54.6354H172.771V36.042Z" fill="white"/>
<path d="M165.567 42.1268C165.567 43.2928 165.567 44.7135 163.961 45.2927C165.606 45.8563 165.567 47.0532 165.567 48.3041V52.937C165.567 53.8172 165.922 54.35 166.556 54.4813C166.695 54.5282 166.841 54.5491 166.988 54.543H168.532V57.6316H165.984C163.266 57.6316 161.768 56.0873 161.768 53.2227V47.7404C161.749 47.4589 161.625 47.1949 161.42 47.0005C161.216 46.8061 160.946 46.6954 160.664 46.6903H160V43.98H160.664C160.952 43.9762 161.227 43.8618 161.433 43.6605C161.638 43.4592 161.758 43.1865 161.768 42.899V37.3395C161.768 34.5211 163.235 33 165.984 33H168.555V36.0423H167.011C166.864 36.0427 166.718 36.0662 166.579 36.1118C165.946 36.2739 165.59 36.799 165.59 37.6561L165.567 42.1268Z" fill="white"/>
</g>
<defs>
<clipPath id="clip0_904_956">
<rect width="122" height="24.7089" fill="white" transform="translate(160 33)"/>
</clipPath>
</defs>
</svg>
